<svg width="500" height="500" version="1.1" xmlns="http://www.w3.org/2000/svg" desc="Created with imagetracer.js version 1.2.6" ><path fill="rgb(0,0,0)" stroke="rgb(0,0,0)" stroke-width="1" opacity="0" d="M 0 0 L 500 0 L 500 500 L 0 500 L 0 0 Z M 252 97 L 243 99 L 241 101 Q 242 104 239 103 L 238 106 L 238 118 L 237 119 L 241 132 L 240 137 L 220 147 Q 211 151 210 163 L 196 179 Q 193 178 194 181 L 192 181 L 192 183 L 190 183 L 179 200 L 174 205 Q 171 204 172 207 L 170 207 L 170 209 L 167 211 L 164 210 L 155 210 L 154 213 L 158 214 L 159 216 L 155 220 Q 152 219 153 222 L 150 224 Q 148 228 153 227 L 154 227 Q 150 228 151 232 L 155 232 Q 154 229 157 230 L 160 228 L 156 233 L 158 236 L 161 232 L 164 230 L 163 232 Q 161 236 165 235 L 173 221 L 182 213 Q 184 214 183 211 L 186 211 L 196 202 Q 195 199 198 200 L 198 198 L 203 196 L 209 189 L 211 186 L 218 180 L 223 173 L 224 175 L 224 194 L 225 195 Q 226 201 222 203 L 222 215 L 224 217 Q 224 222 220 224 L 221 228 L 218 232 L 218 235 L 218 237 L 212 247 L 210 255 L 207 260 L 208 262 L 207 273 L 190 301 L 190 304 L 188 306 L 182 322 L 182 327 L 179 331 L 179 334 L 166 345 L 163 345 L 162 348 L 163 351 L 185 351 Q 190 348 189 339 L 189 337 L 193 332 L 197 322 L 210 308 L 217 289 L 230 269 L 239 270 Q 238 262 243 260 L 246 258 L 248 254 L 255 253 L 265 268 L 273 268 L 274 267 L 290 287 L 298 303 L 307 310 L 313 318 Q 312 320 315 319 L 315 321 L 317 321 L 323 333 L 324 341 L 327 343 L 336 342 L 339 340 L 350 340 L 351 337 L 341 332 L 336 328 Q 337 325 335 326 L 329 321 L 318 296 L 306 282 L 298 269 L 296 257 Q 291 251 290 243 L 282 231 Q 284 224 280 223 L 280 215 L 278 213 L 279 211 L 277 201 L 278 178 L 289 193 Q 288 195 291 194 L 291 196 L 303 207 Q 305 206 304 209 L 314 215 Q 316 214 315 217 L 323 222 Q 328 227 331 236 Q 330 238 334 237 L 333 233 L 334 230 L 337 237 L 340 238 L 342 237 L 338 231 L 338 229 L 344 235 L 346 235 L 346 233 L 342 228 L 345 229 Q 349 230 347 225 L 337 218 L 341 217 L 344 214 L 343 212 L 332 214 L 327 210 L 313 196 Q 314 193 312 194 L 305 186 L 301 183 L 290 168 L 283 150 L 264 140 Q 261 141 262 138 L 260 138 Q 259 129 261 124 L 265 123 L 264 110 L 260 103 L 252 97 Z " /><path fill="rgb(255,255,255)" stroke="rgb(255,255,255)" stroke-width="1" opacity="0.4117647058823529" d="M 251.5 97 L 260 102.5 L 264 109.5 L 265 123 L 261 124 Q 258.9 129 260 138 L 262 138 Q 260.9 140.7 263.5 140 L 283 149.5 L 290 167.5 L 301 183 L 305 185.5 L 311.5 194 Q 313.8 193.3 313 195.5 L 326.5 210 L 331.5 214 L 342.5 212 L 344 213.5 L 340.5 217 L 337 217.5 L 347 225 L 347 229 Q 343.2 227.5 344 230.5 Q 346.7 231.6 346 235 L 343.5 235 L 338.5 230 L 338 231.5 L 342 236.5 L 339.5 238 L 337 237 L 333.5 230 L 333 232.5 L 334 237 Q 330.2 238.5 331 235.5 Q 328.5 227 322.5 222 L 315 217 Q 316.1 214.3 313.5 215 L 304 209 Q 305.1 206.3 302.5 207 L 291 195.5 L 291 194 Q 288.3 195.1 289 192.5 L 277.5 178 L 277 200.5 L 279 210.5 L 278 212.5 L 280 215.5 L 279 215.5 L 276 211.5 Q 278.8 210.8 278 206.5 L 276 200.5 L 276 176 L 279 177.5 Q 278.3 179.8 280.5 179 L 297.5 201 L 325 222.5 Q 329.8 226.8 331.5 234 L 332 229 L 335.5 231 L 336.5 227 L 344.5 234 L 345 232.5 L 338.5 225 L 345.5 228 L 346 226.5 L 337 220 L 336 217.5 L 342 215 Q 343.1 212.3 340.5 213 L 330.5 215 L 319 204.5 L 296 178.5 L 288 166.5 L 284 153.5 L 280.5 149 L 264.5 143 L 259 137.5 L 258 133.5 L 260 123 L 264 120.5 L 264 117.5 Q 261 118.5 262 113.5 L 262 111.5 Q 262 102.5 255.5 100 L 247.5 99 L 242 101.5 Q 242.5 106 239 106.5 L 239 118.5 L 238 120.5 Q 243.8 124.2 242 135.5 L 241 138 L 220.5 148 L 213 155.5 L 211 163.5 L 208.5 166 L 207 166 L 207 168 Q 204.3 166.9 205 169.5 L 197.5 179 L 190 185.5 L 175.5 205 L 167.5 212 L 159.5 212 L 155.5 211 L 156.5 213 Q 160.3 212.3 161 214.5 L 156.5 220 L 151 224.5 Q 150.3 226.8 152.5 226 L 159 222 L 152 230.5 L 153.5 231 Q 156.2 225.7 162 225 L 159 231.5 L 161 230.5 L 164.5 226 L 165 230.5 L 164 232.5 L 166 231.5 L 168 225.5 L 173 218 L 179 215 Q 177.9 212.3 180.5 213 L 207 189.5 L 213.5 181 L 218 177.5 L 222.5 171 Q 224.8 170.3 224 172.5 L 225 173.5 L 225 193.5 L 224 193.5 L 224 174.5 L 222.5 173 L 217.5 180 L 211 185.5 L 209 188.5 L 202.5 196 L 198 198 L 198 200 Q 195.3 198.9 196 201.5 L 185.5 211 L 183 211 Q 184.1 213.7 181.5 213 L 173 220.5 L 164.5 235 Q 161.5 235.9 163 231.5 L 164 229.5 L 161 231.5 L 157.5 236 L 156 232.5 L 158 229.5 L 156.5 230 Q 153.9 229.3 155 232 L 151 232 Q 150.3 228.6 153 227.5 L 150 227 Q 149 223.2 151.5 222 L 154.5 220 L 159 215.5 L 157.5 214 L 154 212.5 L 154.5 210 L 163.5 210 L 166.5 211 L 170 208.5 L 170 207 L 172 207 Q 170.9 204.3 173.5 205 L 179 199.5 L 190 183 L 192 183 L 192 181 L 194 181 Q 192.9 178.3 195.5 179 L 210 162.5 Q 211 151 219.5 147 L 240 136.5 L 241 131.5 L 237 118.5 L 238 117.5 L 238 105.5 L 239 103 Q 242 104.3 241 100.5 L 242.5 99 L 251.5 97 Z M 337 231 L 337 235 L 340 237 L 337 231 Z " /><path fill="rgb(255,255,255)" stroke="rgb(255,255,255)" stroke-width="1" opacity="0.4117647058823529" d="M 225.5 195 L 226 198.5 L 223 203.5 L 222.5 210 L 222 202.5 Q 225.4 200.4 225.5 195 Z " /><path fill="rgb(255,255,255)" stroke="rgb(255,255,255)" stroke-width="1" opacity="0.4117647058823529" d="M 222.5 211 L 225 215.5 L 225 219.5 L 221 225.5 L 222 229.5 L 219 233.5 L 219 236.5 L 209 258.5 L 208 272.5 L 191 301.5 L 183 322.5 L 183 327.5 L 177 338 L 163 347.5 L 163.5 350 L 183.5 350 L 187 346.5 L 188 338.5 L 189.5 337 L 189 338.5 Q 190.1 348.1 184.5 351 L 162.5 351 L 162 347.5 L 163 345 L 165.5 345 L 179 333.5 L 179 330.5 L 182 326.5 L 182 321.5 L 188 305.5 L 190 303.5 L 190 300.5 L 207 272.5 L 208 261.5 L 207 259.5 L 210 254.5 L 212 246.5 L 218 236.5 L 218 234.5 L 218 231.5 L 221 227.5 L 220 223.5 Q 223.7 221.6 224 216.5 Q 220.8 215.3 222.5 211 Z " /><path fill="rgb(255,255,255)" stroke="rgb(255,255,255)" stroke-width="1" opacity="0.4117647058823529" d="M 279.5 221 Q 283.3 223.3 282 230.5 L 290 242.5 Q 291.1 251.4 296 256.5 L 298 268.5 L 306 281.5 L 318 295.5 L 329 320.5 L 334.5 326 Q 336.8 325.3 336 327.5 L 340.5 332 L 351 336.5 L 350 340 L 338.5 340 L 335.5 342 L 326.5 343 L 324 340.5 L 323 332.5 L 317 321 L 315 321 L 315 319 Q 312.3 320.1 313 317.5 L 307 310 L 298 302.5 L 290 286.5 L 273.5 267 L 272.5 268 L 264.5 268 L 254.5 253 L 248 254 L 245.5 258 L 243 259.5 Q 238 262.5 239 270 L 233 269.5 L 238 269 L 238 265.5 L 243.5 257 L 250.5 252 L 255.5 252 L 265.5 267 Q 271.7 268.7 273.5 266 L 278 269.5 Q 292.2 284.1 300 304 L 301.5 304 L 313 315.5 L 323 329.5 Q 325.7 332.8 325 339.5 L 327.5 342 Q 334.5 342 338.5 339 L 347.5 339 L 349 337.5 Q 349.8 334.9 346.5 336 L 336 329.5 L 334.5 327 L 329 322.5 L 314 291.5 L 306 283.5 L 304 278.5 L 297 269.5 L 295 257.5 L 287 239.5 L 281 230.5 L 281 225.5 L 279.5 221 Z " /><path fill="rgb(255,255,255)" stroke="rgb(255,255,255)" stroke-width="1" opacity="0.4117647058823529" d="M 230.5 268 L 232 268.5 L 230 269 L 217 288.5 L 211.5 302 L 211 299.5 L 216 287.5 L 230.5 268 Z " /><path fill="rgb(255,255,255)" stroke="rgb(255,255,255)" stroke-width="1" opacity="0.4117647058823529" d="M 210.5 303 L 211 305.5 L 197 321.5 L 193 331.5 L 189.5 336 L 189 334.5 L 197 319.5 L 205.5 310 Q 207.8 310.8 207 308.5 L 210.5 303 Z " /><path fill="rgb(255,255,255)" stroke="rgb(255,255,255)" stroke-width="1" opacity="0.996078431372549" d="M 247.5 99 L 250 99.5 L 243 101 Q 243.8 105.7 239.5 107 L 242 103.5 L 243.5 100 L 247.5 99 Z " /><path fill="rgb(255,255,255)" stroke="rgb(255,255,255)" stroke-width="1" opacity="0.996078431372549" d="M 252.5 99 Q 258.6 100.4 261 105.5 L 262 108.5 L 261 108.5 L 255.5 101 Q 251.7 101.5 252.5 99 Z " /><path fill="rgb(255,255,255)" stroke="rgb(255,255,255)" stroke-width="1" opacity="0.996078431372549" d="M 239.5 112 L 240 117.5 L 239 117.5 L 239.5 112 Z " /><path fill="rgb(255,255,255)" stroke="rgb(255,255,255)" stroke-width="1" opacity="0.996078431372549" d="M 239.5 122 Q 241.8 121.3 241 123.5 L 242 125.5 L 241 125.5 L 239.5 122 Z " /><path fill="rgb(255,255,255)" stroke="rgb(255,255,255)" stroke-width="1" opacity="0.996078431372549" d="M 259.5 123 L 260 126.5 L 259 126.5 L 259.5 123 Z " /><path fill="rgb(255,255,255)" stroke="rgb(255,255,255)" stroke-width="1" opacity="0.996078431372549" d="M 242.5 127 L 243 135.5 L 241 136.5 L 242 135.5 L 242.5 127 Z " /><path fill="rgb(255,255,255)" stroke="rgb(255,255,255)" stroke-width="1" opacity="0.996078431372549" d="M 258.5 129 L 259 132.5 L 258 132.5 L 258.5 129 Z " /><path fill="rgb(255,255,255)" stroke="rgb(255,255,255)" stroke-width="1" opacity="0.996078431372549" d="M 258.5 136 L 264.5 143 L 277 147.5 L 274.5 148 L 261 142 L 261 140 Q 258.3 141.1 259 138.5 L 258.5 136 Z " /><path fill="rgb(255,255,255)" stroke="rgb(255,255,255)" stroke-width="1" opacity="0.996078431372549" d="M 239.5 138 L 241 138.5 L 238.5 140 L 239.5 138 Z " /><path fill="rgb(255,255,255)" stroke="rgb(255,255,255)" stroke-width="1" opacity="0.996078431372549" d="M 236.5 140 L 235.5 142 L 230.5 144 L 230.5 143 L 236.5 140 Z " /><path fill="rgb(255,255,255)" stroke="rgb(255,255,255)" stroke-width="1" opacity="0.996078431372549" d="M 227.5 144 L 229 144.5 Q 219.8 148.3 214 155.5 L 212.5 159 L 212 157.5 L 220.5 148 L 227.5 144 Z " /><path fill="rgb(255,255,255)" stroke="rgb(255,255,255)" stroke-width="1" opacity="0.996078431372549" d="M 278.5 148 L 283 151.5 L 285 157.5 L 284 157.5 L 281 150 L 278.5 148 Z " /><path fill="rgb(255,255,255)" stroke="rgb(255,255,255)" stroke-width="1" opacity="0.996078431372549" d="M 285.5 159 L 288 166.5 L 296 178.5 L 319 203.5 L 317 204 L 317 202 Q 314.3 203.1 315 200.5 L 309 193 Q 306.3 194.1 307 191.5 L 302 185 L 300 185 L 300 183 Q 297.3 184.1 298 181.5 L 294 177.5 L 289 168 Q 286 169.3 287 165.5 Q 283.9 163.5 285.5 159 Z " /><path fill="rgb(255,255,255)" stroke="rgb(255,255,255)" stroke-width="1" opacity="0.996078431372549" d="M 210.5 164 L 207.5 168 L 207 166 L 210.5 164 Z " /><path fill="rgb(255,255,255)" stroke="rgb(255,255,255)" stroke-width="1" opacity="0.996078431372549" d="M 205.5 168 L 206 169.5 L 197.5 180 L 195 181.5 L 191 186.5 L 187 193 L 185 192.5 L 196.5 179 L 201 175.5 L 205.5 168 Z " /><path fill="rgb(255,255,255)" stroke="rgb(255,255,255)" stroke-width="1" opacity="0.996078431372549" d="M 222.5 170 L 225 171.5 L 226 173.5 L 226 194.5 L 225 194.5 L 225 173.5 L 224 171 L 221 172.5 L 218.5 176 L 220 173.5 L 222.5 170 Z " /><path fill="rgb(255,255,255)" stroke="rgb(255,255,255)" stroke-width="1" opacity="0.996078431372549" d="M 276.5 175 L 280 177.5 L 279.5 179 L 277.5 176 L 276.5 175 Z " /><path fill="rgb(255,255,255)" stroke="rgb(255,255,255)" stroke-width="1" opacity="0.996078431372549" d="M 216.5 177 L 218 177.5 L 210 184.5 L 201.5 195 L 190.5 205 L 190 203 L 192 203 L 192 201 Q 194.7 202.1 194 199.5 L 206 189.5 L 210 182 L 216.5 177 Z " /><path fill="rgb(255,255,255)" stroke="rgb(255,255,255)" stroke-width="1" opacity="0.996078431372549" d="M 281.5 179 L 286 184.5 L 282 181.5 L 281.5 179 Z " /><path fill="rgb(255,255,255)" stroke="rgb(255,255,255)" stroke-width="1" opacity="0.996078431372549" d="M 286.5 186 Q 289.1 185.3 288 188 L 290 188 L 290 190.5 L 301.5 203 L 306.5 207 L 308.5 210 L 295 198.5 L 286.5 186 Z " /><path fill="rgb(255,255,255)" stroke="rgb(255,255,255)" stroke-width="1" opacity="0.996078431372549" d="M 184.5 194 L 183 196.5 L 181 199.5 L 173.5 208 L 171 209.5 Q 171.8 211.8 169.5 211 L 174.5 205 L 178 202.5 L 184.5 194 Z " /><path fill="rgb(255,255,255)" stroke="rgb(255,255,255)" stroke-width="1" opacity="0.996078431372549" d="M 225.5 199 L 226 201.5 Q 223.3 202.8 223.5 207 L 223 203.5 L 225.5 199 Z " /><path fill="rgb(255,255,255)" stroke="rgb(255,255,255)" stroke-width="1" opacity="0.996078431372549" d="M 276.5 201 L 278 209.5 L 276 210.5 L 277 206.5 Q 274.6 205.2 276.5 201 Z " /><path fill="rgb(255,255,255)" stroke="rgb(255,255,255)" stroke-width="1" opacity="0.996078431372549" d="M 188.5 205 L 184.5 210 L 184 208 L 188.5 205 Z " /><path fill="rgb(255,255,255)" stroke="rgb(255,255,255)" stroke-width="1" opacity="0.996078431372549" d="M 319.5 205 L 330 214.5 L 328 215 L 326.5 212 L 319.5 205 Z " /><path fill="rgb(255,255,255)" stroke="rgb(255,255,255)" stroke-width="1" opacity="0.996078431372549" d="M 181.5 210 L 183 210.5 L 179.5 213 L 181.5 210 Z " /><path fill="rgb(255,255,255)" stroke="rgb(255,255,255)" stroke-width="1" opacity="0.996078431372549" d="M 310.5 210 L 313.5 212 L 322.5 220 L 325 220 L 327 225 Q 329.7 223.9 329 226.5 Q 330.8 230.8 332.5 228 L 334.5 229 L 335 226 Q 338 227 337 224 L 339.5 224 L 339.5 225 L 338 225.5 L 345 233.5 L 338.5 228 L 336.5 227 L 336 230.5 L 340 236.5 L 337 234.5 L 333.5 229 Q 330.1 228.1 332 233.5 L 333 235.5 L 332 235.5 Q 329.9 226.1 323.5 221 L 312.5 213 L 310.5 210 Z " /><path fill="rgb(255,255,255)" stroke="rgb(255,255,255)" stroke-width="1" opacity="0.996078431372549" d="M 155.5 211 Q 161.3 210.3 162 214.5 L 161 218 L 155 221.5 L 157 222.5 L 151 226 L 155.5 220 L 161 215.5 L 159.5 213 Q 154.9 213.8 155.5 211 Z " /><path fill="rgb(255,255,255)" stroke="rgb(255,255,255)" stroke-width="1" opacity="0.996078431372549" d="M 162.5 212 L 168 212.5 L 162.5 213 L 162.5 212 Z " /><path fill="rgb(255,255,255)" stroke="rgb(255,255,255)" stroke-width="1" opacity="0.996078431372549" d="M 223.5 212 L 224 214 Q 228 212.6 226 219.5 L 222 225.5 L 223 229.5 L 215.5 244 L 216 242.5 L 219 236.5 L 219 233.5 L 222 229.5 L 222 226.5 L 221 224.5 L 225 219.5 L 225 215.5 Q 222 214.5 223.5 212 Z " /><path fill="rgb(255,255,255)" stroke="rgb(255,255,255)" stroke-width="1" opacity="0.996078431372549" d="M 276.5 212 Q 280.9 213.6 280 220.5 L 279 220.5 L 279 216.5 L 276.5 212 Z " /><path fill="rgb(255,255,255)" stroke="rgb(255,255,255)" stroke-width="1" opacity="0.996078431372549" d="M 340.5 213 Q 343.1 212.3 342 215 L 336 217.5 L 337 220 L 342 223.5 L 339.5 222 L 335 218.5 Q 333.9 215.2 336.5 216 L 336.5 215 L 332 214.5 L 340.5 213 Z " /><path fill="rgb(255,255,255)" stroke="rgb(255,255,255)" stroke-width="1" opacity="0.996078431372549" d="M 177.5 214 L 179 214.5 L 174.5 218 L 177.5 214 Z " /><path fill="rgb(255,255,255)" stroke="rgb(255,255,255)" stroke-width="1" opacity="0.996078431372549" d="M 172.5 218 L 173 219.5 Q 167.3 224.8 164.5 233 L 164 231.5 L 165 226.5 L 161 229.5 L 157.5 234 L 159 231.5 L 162 225 Q 156 226 152.5 231 L 159 223.5 L 159.5 222 L 160 224 Q 164.5 223.8 166.5 227 L 172.5 218 Z " /><path fill="rgb(255,255,255)" stroke="rgb(255,255,255)" stroke-width="1" opacity="0.996078431372549" d="M 279.5 223 Q 281.9 225.1 281 230.5 L 283 233.5 L 281 232.5 L 279.5 223 Z " /><path fill="rgb(255,255,255)" stroke="rgb(255,255,255)" stroke-width="1" opacity="0.996078431372549" d="M 343.5 224 L 346 227.5 L 344.5 227 L 341 225.5 L 343.5 224 Z " /><path fill="rgb(255,255,255)" stroke="rgb(255,255,255)" stroke-width="1" opacity="0.996078431372549" d="M 283.5 235 L 284.5 237 Q 281.7 237.7 283.5 235 Z " /><path fill="rgb(255,255,255)" stroke="rgb(255,255,255)" stroke-width="1" opacity="0.996078431372549" d="M 285.5 238 L 289 244.5 L 288 244.5 L 285 239.5 L 285.5 238 Z " /><path fill="rgb(255,255,255)" stroke="rgb(255,255,255)" stroke-width="1" opacity="0.996078431372549" d="M 214.5 245 L 215 246.5 L 213.5 249 L 213 247.5 L 214.5 245 Z " /><path fill="rgb(255,255,255)" stroke="rgb(255,255,255)" stroke-width="1" opacity="0.996078431372549" d="M 289.5 246 L 291 248.5 L 289 247.5 L 289.5 246 Z " /><path fill="rgb(255,255,255)" stroke="rgb(255,255,255)" stroke-width="1" opacity="0.996078431372549" d="M 212.5 250 L 213 251.5 L 211 252.5 L 212.5 250 Z " /><path fill="rgb(255,255,255)" stroke="rgb(255,255,255)" stroke-width="1" opacity="0.996078431372549" d="M 291.5 250 L 294 255.5 L 292 254.5 L 291.5 250 Z " /><path fill="rgb(255,255,255)" stroke="rgb(255,255,255)" stroke-width="1" opacity="0.996078431372549" d="M 250.5 251 Q 255.9 250.4 258 252 L 257.5 254 Q 256.2 250.7 250.5 252 L 244.5 257 L 244 255 L 246 255 Q 244.9 252.3 247.5 253 L 250.5 251 Z " /><path fill="rgb(255,255,255)" stroke="rgb(255,255,255)" stroke-width="1" opacity="0.996078431372549" d="M 258.5 255 Q 264.4 258.6 265 266 L 273 266.5 L 265.5 267 L 258.5 255 Z " /><path fill="rgb(255,255,255)" stroke="rgb(255,255,255)" stroke-width="1" opacity="0.996078431372549" d="M 210.5 256 L 211 257.5 L 209 258.5 L 210.5 256 Z " /><path fill="rgb(255,255,255)" stroke="rgb(255,255,255)" stroke-width="1" opacity="0.996078431372549" d="M 242.5 257 L 242 258.5 L 238.5 265 L 238 262.5 L 242.5 257 Z " /><path fill="rgb(255,255,255)" stroke="rgb(255,255,255)" stroke-width="1" opacity="0.996078431372549" d="M 294.5 257 L 297 269.5 L 304 279.5 L 303 279.5 L 296 269.5 L 294 261.5 L 294.5 257 Z " /><path fill="rgb(255,255,255)" stroke="rgb(255,255,255)" stroke-width="1" opacity="0.996078431372549" d="M 274.5 266 Q 277.8 264.9 277 267.5 L 277.5 269 L 274.5 266 Z " /><path fill="rgb(255,255,255)" stroke="rgb(255,255,255)" stroke-width="1" opacity="0.996078431372549" d="M 208.5 268 L 209 272.5 L 200.5 287 L 201 285.5 L 208 272.5 L 208.5 268 Z " /><path fill="rgb(255,255,255)" stroke="rgb(255,255,255)" stroke-width="1" opacity="0.996078431372549" d="M 228.5 268 L 230 268.5 L 220.5 282 L 220 280.5 L 228.5 268 Z " /><path fill="rgb(255,255,255)" stroke="rgb(255,255,255)" stroke-width="1" opacity="0.996078431372549" d="M 232.5 268 L 238 268.5 L 232.5 269 L 232.5 268 Z " /><path fill="rgb(255,255,255)" stroke="rgb(255,255,255)" stroke-width="1" opacity="0.996078431372549" d="M 278.5 270 L 280 270 L 280 272 Q 282.7 270.9 282 273.5 Q 290.7 280.8 295 292.5 L 294 292.5 L 290 284.5 L 278.5 270 Z " /><path fill="rgb(255,255,255)" stroke="rgb(255,255,255)" stroke-width="1" opacity="0.996078431372549" d="M 304.5 281 L 315 293.5 L 312 291.5 Q 312.8 289.3 310.5 290 L 304 282.5 L 304.5 281 Z " /><path fill="rgb(255,255,255)" stroke="rgb(255,255,255)" stroke-width="1" opacity="0.996078431372549" d="M 218 283 L 220 283.5 L 216 287.5 L 212.5 296 L 212 293.5 L 218 283 Z " /><path fill="rgb(255,255,255)" stroke="rgb(255,255,255)" stroke-width="1" opacity="0.996078431372549" d="M 199.5 288 L 200 290 Q 197.3 288.9 198 291.5 L 196 292.5 L 199.5 288 Z " /><path fill="rgb(255,255,255)" stroke="rgb(255,255,255)" stroke-width="1" opacity="0.996078431372549" d="M 195.5 294 L 196 295.5 L 191.5 303 L 191 301.5 L 195.5 294 Z " /><path fill="rgb(255,255,255)" stroke="rgb(255,255,255)" stroke-width="1" opacity="0.996078431372549" d="M 295.5 294 L 301 303.5 L 300 303.5 L 295.5 294 Z " /><path fill="rgb(255,255,255)" stroke="rgb(255,255,255)" stroke-width="1" opacity="0.996078431372549" d="M 315.5 295 L 316.5 297 L 315.5 295 Z " /><path fill="rgb(255,255,255)" stroke="rgb(255,255,255)" stroke-width="1" opacity="0.996078431372549" d="M 211.5 297 L 212 298.5 L 210.5 303 L 210 299.5 L 211.5 297 Z " /><path fill="rgb(255,255,255)" stroke="rgb(255,255,255)" stroke-width="1" opacity="0.996078431372549" d="M 317.5 298 L 319 300.5 L 317 299.5 L 317.5 298 Z " /><path fill="rgb(255,255,255)" stroke="rgb(255,255,255)" stroke-width="1" opacity="0.996078431372549" d="M 319.5 302 L 324 311.5 L 322 310.5 L 319 304.5 L 319.5 302 Z " /><path fill="rgb(255,255,255)" stroke="rgb(255,255,255)" stroke-width="1" opacity="0.996078431372549" d="M 190.5 304 L 191 305.5 L 187.5 313 L 187 311.5 L 190.5 304 Z " /><path fill="rgb(255,255,255)" stroke="rgb(255,255,255)" stroke-width="1" opacity="0.996078431372549" d="M 209.5 304 L 209 305.5 L 207.5 308 L 208 306.5 L 209.5 304 Z " /><path fill="rgb(255,255,255)" stroke="rgb(255,255,255)" stroke-width="1" opacity="0.996078431372549" d="M 302.5 304 L 310 310 L 314 317 L 316 317 Q 314.9 319.7 317.5 319 L 323 328.5 L 321 327.5 L 319 322.5 L 302.5 304 Z " /><path fill="rgb(255,255,255)" stroke="rgb(255,255,255)" stroke-width="1" opacity="0.996078431372549" d="M 205.5 309 L 207 309.5 L 200 315.5 L 194.5 325 L 194 322.5 L 197 317 Q 199.7 318.1 199 315.5 L 205.5 309 Z " /><path fill="rgb(255,255,255)" stroke="rgb(255,255,255)" stroke-width="1" opacity="0.996078431372549" d="M 324.5 313 L 326 316.5 L 324 315.5 L 324.5 313 Z " /><path fill="rgb(255,255,255)" stroke="rgb(255,255,255)" stroke-width="1" opacity="0.996078431372549" d="M 186.5 314 L 187 316.5 L 185 317.5 L 186.5 314 Z " /><path fill="rgb(255,255,255)" stroke="rgb(255,255,255)" stroke-width="1" opacity="0.996078431372549" d="M 326.5 318 L 333.5 327 L 336 328.5 L 338.5 332 L 342 333.5 L 340.5 334 L 328 322.5 L 326.5 318 Z " /><path fill="rgb(255,255,255)" stroke="rgb(255,255,255)" stroke-width="1" opacity="0.996078431372549" d="M 184.5 320 L 185 321.5 L 183.5 327 L 183 322.5 L 184.5 320 Z " /><path fill="rgb(255,255,255)" stroke="rgb(255,255,255)" stroke-width="1" opacity="0.996078431372549" d="M 193.5 326 L 193 327.5 L 190.5 332 L 190 330.5 L 193.5 326 Z " /><path fill="rgb(255,255,255)" stroke="rgb(255,255,255)" stroke-width="1" opacity="0.996078431372549" d="M 182.5 328 L 183 329.5 L 181 330.5 L 182.5 328 Z " /><path fill="rgb(255,255,255)" stroke="rgb(255,255,255)" stroke-width="1" opacity="0.996078431372549" d="M 323.5 330 L 325 333.5 L 324 333.5 L 323.5 330 Z " /><path fill="rgb(255,255,255)" stroke="rgb(255,255,255)" stroke-width="1" opacity="0.996078431372549" d="M 189.5 333 L 189 334.5 L 188.5 338 L 188 334.5 L 189.5 333 Z " /><path fill="rgb(255,255,255)" stroke="rgb(255,255,255)" stroke-width="1" opacity="0.996078431372549" d="M 179.5 334 L 180 336 Q 177.3 334.9 178 337.5 L 164 348.5 L 164.5 350 Q 161.9 350.8 163 347.5 L 177 338 L 179.5 334 Z " /><path fill="rgb(255,255,255)" stroke="rgb(255,255,255)" stroke-width="1" opacity="0.996078431372549" d="M 343.5 334 L 346 335.5 L 344.5 336 L 343.5 334 Z " /><path fill="rgb(255,255,255)" stroke="rgb(255,255,255)" stroke-width="1" opacity="0.996078431372549" d="M 348.5 336 L 349 337.5 Q 347.5 340.5 341.5 339 L 341.5 338 Q 348.8 339.5 348.5 336 Z " /><path fill="rgb(255,255,255)" stroke="rgb(255,255,255)" stroke-width="1" opacity="0.996078431372549" d="M 325.5 338 L 327 341 L 331 341.5 L 327.5 342 Q 323.9 340.9 325.5 338 Z " /><path fill="rgb(255,255,255)" stroke="rgb(255,255,255)" stroke-width="1" opacity="0.996078431372549" d="M 187.5 339 L 188 341.5 L 187 341.5 L 187.5 339 Z " /><path fill="rgb(255,255,255)" stroke="rgb(255,255,255)" stroke-width="1" opacity="0.996078431372549" d="M 335.5 339 L 338 339.5 L 332.5 341 L 332.5 340 L 335.5 339 Z " /><path fill="rgb(255,255,255)" stroke="rgb(255,255,255)" stroke-width="1" opacity="0.996078431372549" d="M 186.5 344 L 187 346.5 L 183 349.5 L 186.5 344 Z " /><path fill="rgb(255,255,255)" stroke="rgb(255,255,255)" stroke-width="1" opacity="0.996078431372549" d="M 166.5 349 L 176 349.5 L 166.5 350 L 166.5 349 Z " /><path fill="rgb(255,255,255)" stroke="rgb(255,255,255)" stroke-width="1" opacity="1" d="M 250.5 99 L 258 103.5 Q 263.8 107.5 262 118 L 264 118.5 L 263 122 L 259 123 L 258 137.5 L 259 140 L 261 140 Q 259.9 142.7 262.5 142 L 268.5 146 L 277.5 148 L 281 150 L 285 158.5 L 285 162.5 L 287 168 Q 289.7 166.9 289 169.5 L 298 183 L 300 183 L 300 185 Q 302.7 183.9 302 186.5 L 307 193 Q 309.7 191.9 309 194.5 L 315 202 L 317 202 L 317 204 Q 319.7 202.9 319 205.5 L 328 213.5 L 328.5 215 L 336.5 215 L 336.5 216 Q 333.9 215.2 335 218.5 L 343 224.5 L 340.5 225 L 337 224 Q 338 227 335 226 L 335 228.5 L 333.5 228 L 331.5 229 L 329 225 Q 326.3 226.1 327 223.5 L 325 220 L 322.5 220 Q 318.6 214 312 212 Q 313.3 209 309.5 210 L 305 207 L 305 205 L 303 205 Q 304.1 202.3 301.5 203 L 292 193.5 L 290 188 L 288 188 L 288 186 Q 285.3 187.1 286 184.5 L 281.5 179 Q 279.3 179.8 280 177.5 L 276 175 L 276 205.5 L 277 209.5 L 276 212.5 L 279 216.5 L 280 230.5 Q 283.6 232.4 283 237 Q 286 235.8 285 239.5 L 294 256.5 L 296 269.5 L 310.5 290 Q 312.8 289.3 312 291.5 L 317 297.5 L 326 319.5 L 338.5 333 L 344.5 336 L 348 336 Q 349.1 339.5 341.5 338 L 327 341 L 325 337.5 L 325 331.5 L 317.5 319 L 316 319 L 316 317 Q 313.3 318.1 314 315.5 L 310 310 L 301 304 L 292 285.5 L 282 272 L 280 272 L 280 270 Q 277.3 271.1 278 268.5 L 277 266 L 265.5 266 L 265 264.5 L 258 254.5 L 258 252 Q 255.9 250.4 250.5 251 L 246 253 L 246 255 L 244 255 Q 245.1 257.7 242.5 257 L 238 262.5 L 238 268 L 228.5 268 L 227 269.5 L 220 280.5 L 220 283 Q 217.3 281.9 218 284.5 L 212 293.5 L 210 303.5 L 207 309 L 199 315.5 L 197 318.5 L 188 334.5 L 186 346.5 L 182.5 350 L 166.5 349 Q 165.3 351.3 164 348.5 L 178 337.5 Q 177.3 334.9 180 336 L 180 333.5 L 183 329.5 L 185 318.5 L 187 316.5 L 191 303.5 L 198 290 Q 201 291.3 200 287.5 L 209 272.5 Q 207.5 265 210 261.5 L 209 259.5 L 211 257.5 L 211 253.5 L 213 251.5 L 215 244.5 L 220 236.5 L 220 233.5 L 223 229.5 L 223 226.5 L 222 224.5 L 226 219.5 L 226 214 Q 223.3 215.1 224 212.5 L 223 207.5 L 226 201.5 L 226 173.5 L 223.5 170 L 220 172.5 L 218 177 L 210 182 Q 207.5 189.3 201.5 194 L 194 199.5 L 194 201 L 192 201 L 192 203 L 190 203 Q 191.1 205.7 188.5 205 L 184 208 Q 185.3 211 181.5 210 L 179 214 L 172 218 L 166.5 227 L 160.5 224 L 159 224.5 L 160 222 L 154.5 223 L 155.5 221 L 161 218 L 162 214.5 L 160.5 212 L 168 213 L 168 211 Q 171.7 212.5 171 209.5 L 180 201.5 L 181 198 Q 183.7 199.1 183 196.5 L 185 193 Q 187.7 194.1 187 191.5 L 191 185 L 193 185 L 193 183 Q 195.7 184.1 195 181.5 L 202 175.5 L 206 168 L 211 164.5 Q 212.4 154.4 219.5 150 L 241 139 L 243 135.5 L 243 127.5 L 241 122 Q 237.7 123.3 239 118.5 Q 241.3 117.3 240 112.5 L 239 107.5 Q 243.8 106.1 243 101 L 250.5 99 Z " /></svg>